PathFileType	4	(X/Y/Z)	C:/Users/opensim2020/Desktop/walking_exp_matlab/subject01_walking04_straight_03.trc																																																																																																																															
DataRate	CameraRate	NumFrames	NumMarkers	Units	OrigDataRate	OrigDataStartFrame	OrigNumFrames																																																																																																																											
100	100	8	43	mm	100	2260	211																																																																																																																											
Frame#	Time	LFHD			RFHD			LBHD			RBHD			C7			T10			CLAV			STRN			RBAK			LSHO			LUPA			LELB			LFRM			LWRA			LWRB			LFIN			RSHO			RUPA			RELB			RFRM			RWRA			RWRB			RFIN			LASI			RASI			LPSI			RPSI			LTHI			LKNE			LTIB			LANK			LHEE			LTOE			RTHI			RKNE			RTIB			RANK			RHEE			RTOE			*39			*40			*41			*42		
		X1	Y1	Z1	X2	Y2	Z2	X3	Y3	Z3	X4	Y4	Z4	X5	Y5	Z5	X6	Y6	Z6	X7	Y7	Z7	X8	Y8	Z8	X9	Y9	Z9	X10	Y10	Z10	X11	Y11	Z11	X12	Y12	Z12	X13	Y13	Z13	X14	Y14	Z14	X15	Y15	Z15	X16	Y16	Z16	X17	Y17	Z17	X18	Y18	Z18	X19	Y19	Z19	X20	Y20	Z20	X21	Y21	Z21	X22	Y22	Z22	X23	Y23	Z23	X24	Y24	Z24	X25	Y25	Z25	X26	Y26	Z26	X27	Y27	Z27	X28	Y28	Z28	X29	Y29	Z29	X30	Y30	Z30	X31	Y31	Z31	X32	Y32	Z32	X33	Y33	Z33	X34	Y34	Z34	X35	Y35	Z35	X36	Y36	Z36	X37	Y37	Z37	X38	Y38	Z38	X39	Y39	Z39	X40	Y40	Z40	X41	Y41	Z41	X42	Y42	Z42	X43	Y43	Z43
																																																																																																																																		
159	1.58	455.08752	1673.87476	-1053.8656	468.22693	1674.46655	-939.5365	336.31464	1632.63318	-1048.58911	347.2265	1632.50244	-927.27533	288.1752	1436.06543	-1010.56592	261.25858	1140.75903	-1003.66449	433.95016	1370.21045	-1013.73376	480.85309	1219.02356	-1024.03796	241.2012	1237.61499	-932.85016	368.73648	1400.96326	-1173.54004	340.23489	1218.61169	-1261.60925	329.84839	1066.06213	-1267.05225	387.86472	965.05206	-1289.53992	487.54361	868.75311	-1268.69702	435.2738	852.29614	-1292.77588	495.67755	793.46167	-1300.27271	373.69467	1393.65588	-859.69	321.31586	1192.75867	-758.46729	321.86044	1067.11768	-754.59503	360.4838	951.76849	-726.02533	450.5228	843.48047	-748.58734	409.142	840.5036	-708.10651	453.25452	767.51843	-710.85437	438.25339	938.58899	-1117.88391	446.70746	940.66553	-899.76569	253.92105	945.46368	-1059.15247	260.49686	950.35852	-914.35516	470.68323	617.11053	-1190.4469	484.04422	484.70078	-1185.41687	350.57117	358.17542	-1185.90222	210.30125	190.98271	-1131.85913	165.99965	190.19592	-1070.83557	292.216	70.38055	-1148.67944	404.22717	604.6521	-855.15649	417.65833	447.17535	-888.21924	364.54016	277.73849	-884.38824	334.2637	76.75565	-943.26459	282.46362	40.61028	-992.98212	474.52515	37.71779	-948.34283	456.92593	1709.54626	-960.61536	1973.08276	1023.87006	-3101.85107	2012.56494	1022.0033	-3140.69702	NaN	NaN	NaN
160	1.59	465.23547	1673.72583	-1053.85828	478.56586	1674.44958	-939.47058	346.35394	1633.00415	-1048.28589	357.50876	1632.97852	-926.85986	297.67935	1436.3385	-1009.7774	270.46863	1141.09229	-1002.99158	443.26352	1370.30493	-1013.36133	489.9772	1219.11292	-1023.57953	250.62573	1238.02344	-931.87372	377.68463	1400.9176	-1173.02014	347.54144	1218.64783	-1260.67175	335.52606	1066.35059	-1265.245	390.96371	964.01892	-1288.05212	488.58981	865.40277	-1267.82654	435.69745	850.19604	-1291.53259	494.57861	789.84198	-1299.37732	383.33466	1393.98767	-859.16589	332.05762	1193.15356	-757.26752	333.66046	1067.32397	-752.83447	374.69925	952.61749	-724.83197	466.98856	846.38641	-748.05237	425.96225	842.45764	-707.26422	471.85742	770.70227	-710.14996	447.40494	939.42639	-1116.68042	455.24323	940.62683	-898.76904	263.01395	945.96649	-1059.2312	269.00815	950.76782	-914.39386	484.30914	619.42468	-1190.29651	499.0499	487.18143	-1184.86401	369.36157	356.10397	-1185.23889	234.59195	184.86124	-1131.48828	190.4373	181.36913	-1069.9054	321.60513	68.85148	-1150.84924	409.66647	604.55127	-854.96832	420.91196	446.80826	-888.12018	366.00995	278.01846	-884.23688	334.69708	76.93627	-943.27118	282.4162	41.05474	-993.5611	474.68912	37.66962	-948.33838	467.27985	1709.42395	-960.72131	1972.96362	1023.81836	-3101.98511	2012.48376	1021.83624	-3140.64966	NaN	NaN	NaN
161	1.6	475.28778	1673.57764	-1054.00806	488.81714	1674.35986	-939.41205	356.31714	1633.25244	-1048.00452	367.62045	1633.29895	-926.6601	307.10291	1436.53259	-1009.19922	279.48721	1141.36694	-1002.33722	452.59015	1370.32361	-1013.04285	499.16107	1219.1521	-1023.13257	260.06323	1238.31738	-931.01111	386.72253	1400.95898	-1172.66431	354.81512	1218.62244	-1259.74707	341.19778	1066.50378	-1263.47119	394.15561	963.02924	-1286.56067	489.67416	862.05371	-1266.93506	436.18607	848.16571	-1290.10547	493.55472	786.44122	-1298.49609	393.04816	1394.2998	-858.69659	342.52231	1193.41626	-756.12775	345.27261	1067.45435	-751.53284	388.78607	953.4538	-723.69513	483.36569	849.42212	-747.59613	442.59015	844.57806	-706.54242	490.27744	774.07886	-709.46558	456.66663	939.97906	-1116.00122	463.6337	940.49786	-897.85797	272.10687	946.45782	-1059.30396	277.73645	950.95404	-914.52338	497.73065	621.58289	-1190.17188	513.69623	489.49408	-1184.38208	388.20972	353.55328	-1184.68286	259.3674	178.09012	-1131.05969	215.42818	172.05301	-1069.3136	351.75497	67.26265	-1152.98547	415.01407	604.21643	-854.85846	424.09586	446.29575	-887.85248	367.37198	278.10809	-884.18549	334.84698	77.30972	-943.38446	283.02466	41.41327	-993.48755	474.79861	37.57238	-948.28223	477.82864	1709.52527	-960.65259	1973.18848	1023.41571	-3101.89307	2012.61279	1022.06586	-3140.4939	NaN	NaN	NaN
162	1.61	485.34586	1673.40881	-1053.94153	499.00827	1674.29016	-939.42462	366.23138	1633.46851	-1047.92554	377.81998	1633.56873	-926.37244	316.61743	1436.70386	-1008.67554	288.56424	1141.64148	-1001.5448	461.92258	1370.31445	-1012.78278	508.38666	1219.07813	-1022.7431	269.50131	1238.59875	-930.20721	395.71097	1400.87744	-1172.26123	362.04788	1218.50806	-1258.77612	347.11093	1066.65161	-1261.83813	397.43185	962.06586	-1285.15808	490.78723	858.90259	-1266.09741	436.77811	846.25555	-1288.77112	492.62006	783.16199	-1297.5658	402.70901	1394.47449	-858.34387	353.10202	1193.70398	-755.14337	356.96637	1067.59094	-750.25543	402.77457	954.29962	-722.70575	499.5303	852.55121	-747.13519	459.15744	846.80505	-705.86163	508.53073	777.49255	-708.89648	465.8042	940.4325	-1115.04614	472.07507	940.24219	-897.04187	281.39938	946.69525	-1059.37402	286.18985	951.11334	-914.73175	510.82108	623.61945	-1190.16089	528.19708	491.50256	-1183.62183	407.1651	350.78476	-1184.37817	284.73798	170.79295	-1130.83972	241.20488	161.87262	-1068.99292	382.34338	65.56409	-1155.07849	420.24149	603.94293	-854.69598	427.33057	445.77628	-887.35944	369.23746	278.30484	-884.07849	334.96857	77.76341	-943.565	283.15118	42.06637	-993.54901	474.93814	37.58284	-948.29242	487.95923	1709.2439	-960.73297	1973.04749	1023.32654	-3101.83716	2012.51086	1021.98486	-3140.68994	NaN	NaN	NaN
163	1.62	495.25638	1673.21118	-1054.05457	509.03369	1674.0968	-939.44592	376.09589	1633.52136	-1047.81079	387.80307	1633.67676	-926.33081	326.20337	1436.76233	-1008.14355	297.79053	1141.77271	-1000.87183	471.31149	1370.17859	-1012.58704	517.56274	1218.90002	-1022.35614	278.89471	1238.80432	-929.52173	404.72388	1400.69446	-1171.97815	369.35449	1218.33386	-1257.91467	353.07825	1066.75159	-1260.27527	400.9357	961.16541	-1283.77747	492.07608	855.82806	-1265.24768	437.51907	844.46979	-1287.51001	491.8031	780.03375	-1296.59473	412.4628	1394.75964	-858.02185	363.62448	1193.98682	-754.27405	368.49283	1067.66248	-749.00067	416.65573	955.13269	-721.65076	515.60876	855.53754	-746.63116	475.44891	848.78497	-705.30725	526.41913	780.71692	-708.47113	474.76172	940.8858	-1113.98511	480.51044	939.80023	-896.3808	290.43076	946.90912	-1059.50659	294.75125	951.27087	-914.87823	523.71307	625.25024	-1190.21851	542.3089	493.06256	-1182.79504	426.03696	347.84729	-1184.05688	310.86859	163.08092	-1130.86475	267.85831	151.34537	-1068.88123	413.61969	63.56448	-1157.0863	425.49075	603.6192	-854.64136	430.89841	445.51727	-887.46387	371.0769	278.45441	-884.1687	335.25424	78.12632	-943.55109	283.75516	42.49737	-993.49701	475.01624	37.37659	-948.30981	498.02975	1709.13	-960.84906	1973.18481	1023.52441	-3101.84302	2012.5127	1022.03302	-3140.60767	NaN	NaN	NaN
164	1.63	505.16434	1672.9082	-1054.23975	518.97101	1673.93567	-939.58679	385.96313	1633.42627	-1047.8252	397.73553	1633.68347	-926.39325	335.78613	1436.77454	-1007.82184	306.96625	1141.82397	-1000.24719	480.74295	1369.96057	-1012.46405	526.80634	1218.63904	-1022.0481	288.34875	1238.98474	-928.77539	413.87411	1400.47363	-1171.78857	376.67123	1218.09106	-1257.09534	359.26636	1066.76648	-1258.88892	404.70178	960.3609	-1282.47437	493.46439	852.86902	-1264.40686	438.48322	842.76617	-1286.27075	491.21359	777.1076	-1295.61584	422.17709	1394.8147	-857.76422	374.1832	1194.03149	-753.54614	380.05215	1067.6792	-747.80121	430.48038	955.94556	-720.73547	531.47742	858.60046	-746.1488	491.69116	850.92297	-704.77777	544.03827	783.91901	-708.19275	484.03183	941.09534	-1113.62097	488.94241	939.25806	-895.7356	299.09189	947.15228	-1059.65369	303.20184	951.31677	-914.94067	536.00464	626.93597	-1190.03967	556.21875	494.45264	-1181.9364	444.79797	344.76605	-1183.60083	337.56586	155.03668	-1131.08337	295.64371	140.46898	-1069.09546	445.11856	61.28434	-1159.08521	430.75366	603.31995	-854.53271	434.36621	445.11902	-887.30341	373.79282	278.4921	-884.01263	335.59436	78.45093	-943.55438	283.85455	43.31047	-993.67743	475.08139	37.36879	-948.31213	508.26364	1709.10962	-960.94495	1973.06018	1023.40387	-3101.8877	2012.495	1021.9118	-3140.60278	NaN	NaN	NaN
165	1.64	515.05109	1672.66638	-1054.23169	528.87823	1673.6947	-939.71796	395.78271	1633.24133	-1047.85437	407.60266	1633.56702	-926.46875	345.38541	1436.646	-1007.4458	316.22205	1141.74329	-999.6781	490.18796	1369.63342	-1012.45331	536.02209	1218.21887	-1021.7301	297.74313	1239.14001	-928.11981	423.01511	1400.26404	-1171.7572	384.13937	1217.7666	-1256.35718	365.60242	1066.86572	-1257.54932	408.66443	959.59467	-1281.24182	495.09512	850.07214	-1263.59863	439.71564	841.17346	-1285.03369	490.88791	774.2735	-1294.66235	431.96591	1394.83459	-857.61011	384.43063	1193.92285	-752.87335	391.75449	1067.63342	-746.6969	444.26529	956.78107	-719.89087	547.33655	861.56152	-745.72552	507.74463	852.97064	-704.37598	561.58307	787.2088	-708.00659	493.13058	941.18677	-1113.12988	497.38217	938.60699	-895.33063	308.27133	947.07764	-1059.86743	311.77011	951.23199	-915.27435	548.16864	628.25385	-1189.77283	569.63306	495.59756	-1181.0918	463.42682	341.58514	-1183.16382	365.14517	146.62912	-1131.67798	324.00674	129.32858	-1069.57617	477.10696	59.03459	-1160.97327	436.0928	602.95465	-854.44769	437.90454	444.76303	-887.08264	375.33563	278.78839	-884.01514	336.0983	78.81437	-943.5329	284.08313	44.05487	-993.70593	475.13632	37.32662	-948.25873	518.18549	1708.88635	-961.16437	1973.20154	1023.39722	-3101.75269	2012.51306	1021.88287	-3140.60254	NaN	NaN	NaN
166	1.65	524.82581	1672.27197	-1054.37317	538.69727	1673.4425	-939.89026	405.53738	1632.94482	-1047.97449	417.36191	1633.54077	-926.43201	355.04645	1436.56604	-1007.3194	325.39435	1141.70618	-999.20691	499.69763	1369.21814	-1012.40851	545.32849	1217.71802	-1021.46967	307.18259	1239.2594	-927.50464	432.27167	1399.64355	-1171.58118	391.67627	1217.29846	-1255.71094	372.03842	1066.70215	-1256.41541	412.87381	958.79303	-1280.15381	496.9259	847.36108	-1262.75806	441.28482	839.7514	-1283.99744	490.85785	771.62616	-1293.77893	441.7504	1394.6781	-857.5202	394.82382	1193.74536	-752.33246	403.3338	1067.5387	-745.57068	457.98798	957.53436	-719.07855	562.99463	864.62262	-745.43976	523.62012	855.02625	-703.94269	578.75043	790.28333	-707.89691	502.21408	941.09454	-1112.78259	505.90216	937.86621	-894.95319	316.92538	947.13251	-1060.0719	320.23352	951.02313	-915.60345	559.80792	629.36731	-1189.68604	582.47626	496.58005	-1180.16907	481.98615	338.21964	-1182.86902	393.13184	138.02754	-1132.39575	353.03516	118.58212	-1070.27698	509.56564	56.94343	-1162.61023	441.34686	602.638	-854.4433	441.30692	444.18124	-886.82043	377.35321	279.07382	-883.93115	336.39322	79.30173	-943.53351	284.27762	44.71566	-993.91931	475.2193	37.26952	-948.2326	527.94867	1708.56689	-961.38855	1973.06946	1023.76501	-3102.04199	2012.5509	1021.98749	-3140.66504	NaN	NaN	NaN
